<?xml version="1.0" encoding="UTF-8" standalone="no"?>
<!DOCTYPE svg PUBLIC "-//W3C//DTD SVG 1.1//EN" "http://www.w3.org/Graphics/SVG/1.1/DTD/svg11.dtd">
<svg width="100%" height="100%" viewBox="0 0 200 200" version="1.1" xmlns="http://www.w3.org/2000/svg" xmlns:xlink="http://www.w3.org/1999/xlink" xml:space="preserve" xmlns:serif="http://www.serif.com/" style="fill-rule:evenodd;clip-rule:evenodd;stroke-linejoin:round;stroke-miterlimit:2;">
    <g transform="matrix(1,0,0,1,-333.3,-133.333)">
        <g transform="matrix(0.374953,0,0,0.374953,208.328,83.3396)">
            <path d="M758.9,133.333L441.033,133.333C381.5,133.333 333.3,181.533 333.3,241.067L333.3,559C333.3,618.467 381.5,666.667 441.033,666.667L758.967,666.667C818.433,666.667 866.7,618.467 866.7,558.933L866.7,241.067C866.633,181.533 818.433,133.333 758.9,133.333Z" style="fill:url(#_Linear1);fill-rule:nonzero;"/>
            <path d="M597.7,255.867L608.5,237.2C615.167,225.533 630.033,221.6 641.7,228.267C653.367,234.933 657.3,249.8 650.633,261.467L546.567,441.6L621.833,441.6C646.233,441.6 659.9,470.267 649.3,490.133L428.633,490.133C415.167,490.133 404.367,479.333 404.367,465.867C404.367,452.4 415.167,441.6 428.633,441.6L490.5,441.6L569.7,304.333L544.967,261.4C538.3,249.733 542.233,235 553.9,228.2C565.567,221.533 580.3,225.467 587.1,237.133L597.7,255.867ZM504.1,515.133L480.767,555.6C474.1,567.267 459.233,571.2 447.567,564.533C435.9,557.867 431.967,543 438.633,531.333L455.967,501.333C475.567,495.267 491.5,499.933 504.1,515.133ZM705.033,441.733L768.167,441.733C781.633,441.733 792.433,452.533 792.433,466C792.433,479.467 781.633,490.267 768.167,490.267L733.1,490.267L756.767,531.333C763.433,543 759.5,557.733 747.833,564.533C736.167,571.2 721.433,567.267 714.633,555.6C674.767,486.467 644.833,434.733 624.967,400.267C604.633,365.2 619.167,330 633.5,318.067C649.433,345.4 673.233,386.667 705.033,441.733Z" style="fill:white;fill-rule:nonzero;"/>
        </g>
    </g>
    <defs>
        <linearGradient id="_Linear1" x1="0" y1="0" x2="1" y2="0" gradientUnits="userSpaceOnUse" gradientTransform="matrix(3.26572e-14,533.333,-533.333,3.26572e-14,599.967,133.333)"><stop offset="0" style="stop-color:rgb(14,212,252);stop-opacity:1"/><stop offset="1" style="stop-color:rgb(12,87,239);stop-opacity:1"/></linearGradient>
    </defs>
</svg>
