<?xml version="1.0" encoding="UTF-8" standalone="no"?>
<!DOCTYPE svg PUBLIC "-//W3C//DTD SVG 1.1//EN" "http://www.w3.org/Graphics/SVG/1.1/DTD/svg11.dtd">
<svg width="100%" height="100%" viewBox="0 0 200 149" version="1.1" xmlns="http://www.w3.org/2000/svg" xmlns:xlink="http://www.w3.org/1999/xlink" xml:space="preserve" xmlns:serif="http://www.serif.com/" style="fill-rule:evenodd;clip-rule:evenodd;stroke-linejoin:round;stroke-miterlimit:2;">
    <g transform="matrix(1,0,0,1,-9439.25,-3436.08)">
        <g transform="matrix(1,0,0,3.90056,8280,412.439)">
            <g transform="matrix(0.0661154,0,0,0.0639621,1149.5,759.651)">
                <g>
                    <g transform="matrix(4.16667,0,0,1.10419,3172.41,628.613)">
                        <path d="M0,24.048C-236.531,96.815 -489.472,96.815 -726.003,24.048C-707.447,12.093 -689.395,-0.272 -671.857,-13.021C-680.587,-32.868 -688.705,-52.793 -696.219,-72.767C-479.096,-5.972 -246.908,-5.972 -29.784,-72.767C-37.379,-52.768 -45.583,-32.82 -54.399,-12.952C-36.78,-0.223 -18.643,12.121 0,24.048" style="fill:rgb(36,171,222);fill-rule:nonzero;"/>
                    </g>
                    <g transform="matrix(4.16667,0,0,1.10419,246.338,614.643)">
                        <path d="M0,28.863C109.763,62.183 223.563,79.076 338.284,79.076C452.995,79.076 566.798,62.182 676.553,28.868C662.044,19.401 647.639,9.513 633.705,-0.544L633.05,-1.017L633.374,-1.758C640.208,-17.373 646.749,-33.292 652.828,-49.104C550.767,-18.129 444.955,-2.426 338.284,-2.426C231.61,-2.426 125.788,-18.132 23.724,-49.109C29.74,-33.314 36.214,-17.412 42.979,-1.814L43.298,-1.077L42.647,-0.605C28.782,9.465 14.442,19.372 0,28.863M338.284,81.078C222.654,81.078 107.954,63.945 -2.63,30.155L-4.675,29.531L-2.886,28.361C11.911,18.679 26.613,8.55 40.822,-1.754C33.889,-17.773 27.264,-34.105 21.13,-50.306L20.405,-52.215L22.356,-51.618C124.835,-20.305 231.128,-4.428 338.284,-4.428C445.438,-4.428 551.729,-20.304 654.204,-51.616L656.163,-52.215L655.432,-50.301C649.23,-34.08 642.537,-17.733 635.531,-1.696C649.812,8.595 664.581,18.705 679.442,28.362L681.243,29.53L679.19,30.158C568.61,63.946 453.912,81.078 338.284,81.078" style="fill:rgb(33,96,152);fill-rule:nonzero;"/>
                    </g>
                </g>
                <g>
                    <g transform="matrix(4.16667,0,0,1.10419,2590.87,391.406)">
                        <path d="M0,269.147L-223.432,403.721L-446.861,269.147L-446.861,-0L-223.432,-134.574L0,-0L0,269.147Z" style="fill:rgb(230,230,230);fill-rule:nonzero;"/>
                    </g>
                    <g transform="matrix(4.16667,0,0,1.10419,2500.78,405.785)">
                        <path d="M0,243.101L-201.811,364.651L-403.618,243.101L-403.618,-0L-201.811,-121.55L0,-0L0,243.101ZM-201.811,-131.197L-411.627,-4.823L-411.627,247.924L-201.811,374.298L8.007,247.924L8.007,-4.823L-201.811,-131.197Z" style="fill:rgb(51,51,51);fill-rule:nonzero;"/>
                    </g>
                    <g transform="matrix(4.16667,0,0,1.10419,864.079,412.925)">
                        <path d="M0,230.168L190.997,345.207L381.995,230.168L381.995,0.001L190.997,-115.038L0,0.001L0,230.168ZM190.997,348.011L190.378,347.638L-2.402,231.525L-2.402,-1.356L190.997,-117.843L191.618,-117.469L384.397,-1.356L384.397,231.525L190.997,348.011Z" style="fill:rgb(51,51,51);fill-rule:nonzero;"/>
                    </g>
                    <g transform="matrix(15.1251,0,0,4.00821,-121344,-13170.3)">
                        <path d="M8105.8,3440.23L8117.43,3437.6C8119.18,3447.1 8124.55,3451.85 8133.55,3451.85C8143.55,3451.6 8148.68,3446.73 8148.93,3437.23C8148.93,3428.48 8142.8,3424.1 8130.55,3424.1L8123.43,3424.1L8123.43,3415.1L8129.05,3415.1C8140.55,3415.1 8146.43,3410.73 8146.68,3401.98C8146.43,3393.98 8142.05,3389.85 8133.55,3389.6C8125.05,3389.6 8120.05,3394.23 8118.55,3403.48L8107.3,3400.85C8110.55,3387.6 8119.55,3380.98 8134.3,3380.98C8149.55,3381.48 8157.68,3388.1 8158.68,3400.85C8158.43,3410.1 8153.3,3416.1 8143.3,3418.85C8154.3,3421.1 8160.18,3427.48 8160.93,3437.98C8160.18,3452.23 8151.05,3459.6 8133.55,3460.1C8118.3,3460.35 8109.05,3453.73 8105.8,3440.23Z" style="fill:rgb(33,96,152);fill-rule:nonzero;"/>
                    </g>
                </g>
                <g>
                    <g transform="matrix(0.573887,-1.09366,-4.12696,-0.152083,1875.69,382.011)">
                        <path d="M-253.934,-272.894C-335.724,-97.63 -362.951,98.17 -332.083,289.1C-306.034,284.891 -279.984,280.678 -253.934,276.466C-282.268,101.202 -257.274,-78.533 -182.196,-239.418C-206.109,-250.575 -230.022,-261.734 -253.934,-272.894" style="fill:rgb(36,171,222);fill-rule:nonzero;"/>
                    </g>
                    <g transform="matrix(4.16667,0,0,1.10419,539.624,671.218)">
                        <path d="M0,20.459C88.114,47.35 179.497,60.983 271.63,60.983C363.763,60.983 455.145,47.35 543.26,20.459L524.729,-40.026C442.624,-14.976 357.479,-2.276 271.63,-2.276C185.781,-2.276 100.635,-14.976 18.528,-40.026L0,20.459ZM271.63,62.985C178.965,62.985 87.056,49.223 -1.544,22.081L-2.502,21.787L17.2,-42.526L18.157,-42.232C100.368,-17.049 185.648,-4.278 271.63,-4.278C357.61,-4.278 442.892,-17.049 525.102,-42.232L526.058,-42.526L545.761,21.787L544.805,22.081C456.203,49.223 364.294,62.985 271.63,62.985" style="fill:rgb(33,96,152);fill-rule:nonzero;"/>
                    </g>
                </g>
            </g>
        </g>
    </g>
</svg>
