<svg width="24" height="25" viewBox="0 0 24 25" fill="none" xmlns="http://www.w3.org/2000/svg">
<path fill-rule="evenodd" clip-rule="evenodd" d="M9.37464 14.9832C8.37377 15.5714 7.59154 16.4793 7.14927 17.5661C6.707 18.653 6.62941 19.858 6.92852 20.9943C7.22764 22.1306 7.88676 23.1347 8.80364 23.8509C9.72052 24.567 10.8439 24.9552 11.9996 24.9552C13.1553 24.9552 14.2787 24.567 15.1956 23.8509C16.1125 23.1347 16.7716 22.1306 17.0707 20.9943C17.3699 19.858 17.2923 18.653 16.85 17.5661C16.4077 16.4793 15.6255 15.5714 14.6246 14.9832V3.62718C14.6246 2.91852 14.3481 2.23889 13.8558 1.73779C13.3635 1.2367 12.6958 0.955185 11.9996 0.955185C11.3034 0.955185 10.6358 1.2367 10.1435 1.73779C9.6512 2.23889 9.37464 2.91852 9.37464 3.62718V14.9832ZM15.7496 19.7052C15.7496 21.7763 14.0707 23.4552 11.9996 23.4552C9.92857 23.4552 8.24963 21.7763 8.24963 19.7052C8.24963 17.891 9.53795 16.3777 11.2496 16.0302V3.20519C11.2496 2.79097 11.5854 2.45518 11.9996 2.45518C12.4138 2.45518 12.7496 2.79097 12.7496 3.20518V16.0302C14.4613 16.3777 15.7496 17.891 15.7496 19.7052Z" fill="#656667"/>
</svg>
