<svg width="24" height="25" viewBox="0 0 24 25" fill="none" xmlns="http://www.w3.org/2000/svg">
<path d="M20.0231 6.86165C21.0019 7.12305 22.0896 6.86979 22.8575 6.10186C24.0033 4.95605 24.0033 3.09831 22.8575 1.95249C21.7117 0.80667 19.854 0.80667 18.7082 1.95249C17.9402 2.72042 17.687 3.80812 17.9484 4.78696L11.5944 11.141C10.5106 10.509 9.25008 10.147 7.90503 10.147C7.13762 10.147 6.39774 10.2648 5.7025 10.4834L5.00924 7.89613C5.72505 7.17912 6.04956 6.11052 5.76848 5.06151C5.34908 3.49629 3.74023 2.56742 2.17502 2.98682C0.609799 3.40622 -0.319071 5.01507 0.100328 6.58028C0.381409 7.62929 1.19675 8.39247 2.17516 8.65552L3.06368 11.9715C1.53477 13.3158 0.569894 15.2863 0.569894 17.4821C0.569894 21.5332 3.85394 24.8173 7.90503 24.8173C10.7538 24.8173 13.2233 23.1933 14.4382 20.8206L18.2307 21.8368C18.4943 22.8143 19.2571 23.6288 20.3055 23.9097C21.8707 24.3291 23.4795 23.4002 23.8989 21.835C24.3183 20.2698 23.3895 18.6609 21.8242 18.2415C20.7745 17.9602 19.7052 18.2854 18.9882 19.0022L15.2226 17.9932C15.2342 17.8244 15.2402 17.6539 15.2402 17.4821C15.2402 15.8385 14.6996 14.3212 13.7865 13.0982L20.0231 6.86165Z" fill="#656667"/>
</svg>
