<svg width="24" height="25" viewBox="0 0 24 25" fill="none" xmlns="http://www.w3.org/2000/svg">
<path fill-rule="evenodd" clip-rule="evenodd" d="M11.3021 1.13075C11.5146 1.0157 11.755 0.955185 11.9996 0.955185C12.2443 0.955185 12.4847 1.0157 12.6971 1.13075L15.1581 2.46401C15.323 2.54852 15.4684 2.66344 15.5858 2.80202C15.7032 2.94059 15.7902 3.10002 15.8417 3.27094C15.8932 3.44185 15.9081 3.6208 15.8855 3.79725C15.863 3.9737 15.8034 4.1441 15.7104 4.29842C15.6174 4.45275 15.4928 4.58788 15.3439 4.69588C15.195 4.80387 15.0248 4.88255 14.8434 4.92729C14.662 4.97202 14.4729 4.98191 14.2874 4.95637C14.1019 4.93083 13.9236 4.87037 13.7631 4.77856L11.9996 3.82394L10.2362 4.77856C10.0757 4.87037 9.89741 4.93083 9.71188 4.95637C9.52636 4.98191 9.33732 4.97202 9.15588 4.92729C8.97444 4.88255 8.80427 4.80387 8.65537 4.69588C8.50647 4.58788 8.38185 4.45275 8.28884 4.29842C8.19583 4.1441 8.1363 3.9737 8.11376 3.79725C8.09122 3.6208 8.10612 3.44185 8.15758 3.27094C8.20905 3.10002 8.29603 2.94059 8.41343 2.80202C8.53083 2.66344 8.67627 2.54852 8.8412 2.46401L11.3021 1.13075ZM5.83745 5.62652C6.02233 5.93347 6.07108 6.29746 5.97299 6.63848C5.87489 6.9795 5.63798 7.26963 5.31433 7.44509L4.99089 7.62108L5.31433 7.79707C5.47925 7.88158 5.62469 7.9965 5.74209 8.13508C5.85949 8.27365 5.94648 8.43308 5.99795 8.604C6.04941 8.77491 6.06431 8.95386 6.04177 9.13031C6.01923 9.30676 5.9597 9.47716 5.86669 9.63148C5.77367 9.78581 5.64905 9.92094 5.50016 10.0289C5.35126 10.1369 5.18109 10.2156 4.99965 10.2603C4.81821 10.3051 4.62917 10.315 4.44365 10.2894C4.25812 10.2639 4.07985 10.2034 3.91933 10.1116L3.56214 9.9183V10.2876C3.56214 10.6412 3.41398 10.9803 3.15026 11.2304C2.88654 11.4804 2.52885 11.6209 2.15589 11.6209C1.78293 11.6209 1.42524 11.4804 1.16152 11.2304C0.897799 10.9803 0.749641 10.6412 0.749641 10.2876V7.62108C0.748854 7.38157 0.816403 7.14632 0.945135 6.94025C1.07387 6.73417 1.25899 6.56494 1.48089 6.45047L3.91933 5.13054C4.24308 4.95526 4.627 4.90903 4.98669 5.00204C5.34638 5.09504 5.65239 5.31966 5.83745 5.62652ZM18.1618 5.62652C18.3469 5.31966 18.6529 5.09504 19.0126 5.00204C19.3723 4.90903 19.7562 4.95526 20.0799 5.13054L22.517 6.45047C22.7385 6.56543 22.9235 6.73473 23.0523 6.94067C23.1812 7.14661 23.2494 7.38161 23.2496 7.62108V10.2876C23.2496 10.6412 23.1015 10.9803 22.8378 11.2304C22.574 11.4804 22.2163 11.6209 21.8434 11.6209C21.4704 11.6209 21.1127 11.4804 20.849 11.2304C20.5853 10.9803 20.4371 10.6412 20.4371 10.2876V9.9183L20.0799 10.1116C19.9194 10.2034 19.7412 10.2639 19.5556 10.2894C19.3701 10.315 19.1811 10.3051 18.9996 10.2603C18.8182 10.2156 18.648 10.1369 18.4991 10.0289C18.3502 9.92094 18.2256 9.78581 18.1326 9.63148C18.0396 9.47716 17.98 9.30676 17.9575 9.13031C17.935 8.95386 17.9499 8.77491 18.0013 8.604C18.0528 8.43308 18.1398 8.27365 18.2572 8.13508C18.3746 7.9965 18.52 7.88158 18.6849 7.79707L19.0084 7.62108L18.6849 7.44509C18.3613 7.26963 18.1244 6.9795 18.0263 6.63848C17.9282 6.29746 17.9769 5.93347 18.1618 5.62652ZM8.31808 10.9596C8.50314 10.6527 8.80915 10.4281 9.16884 10.3351C9.52852 10.2421 9.91245 10.2883 10.2362 10.4636L11.9996 11.4182L13.7631 10.4636C13.9236 10.3718 14.1019 10.3113 14.2874 10.2858C14.4729 10.2603 14.662 10.2701 14.8434 10.3149C15.0248 10.3596 15.195 10.4383 15.3439 10.5463C15.4928 10.6543 15.6174 10.7894 15.7104 10.9437C15.8034 11.0981 15.863 11.2685 15.8855 11.4449C15.9081 11.6214 15.8932 11.8003 15.8417 11.9712C15.7902 12.1421 15.7032 12.3016 15.5858 12.4401C15.4684 12.5787 15.323 12.6936 15.1581 12.7782L13.4059 13.7274V15.6207C13.4059 15.9743 13.2577 16.3134 12.994 16.5634C12.7303 16.8135 12.3726 16.9539 11.9996 16.9539C11.6267 16.9539 11.269 16.8135 11.0053 16.5634C10.7415 16.3134 10.5934 15.9743 10.5934 15.6207V13.7274L8.8412 12.7782C8.51755 12.6027 8.28064 12.3126 8.18254 11.9715C8.08444 11.6305 8.13319 11.2665 8.31808 10.9596ZM2.15589 14.2874C2.52885 14.2874 2.88654 14.4279 3.15026 14.6779C3.41398 14.9279 3.56214 15.2671 3.56214 15.6207V17.5139L5.31433 18.4632C5.47925 18.5477 5.62469 18.6626 5.74209 18.8012C5.85949 18.9398 5.94648 19.0992 5.99795 19.2701C6.04941 19.441 6.06431 19.62 6.04177 19.7964C6.01923 19.9729 5.9597 20.1433 5.86669 20.2976C5.77367 20.4519 5.64905 20.5871 5.50016 20.6951C5.35126 20.8031 5.18109 20.8817 4.99965 20.9265C4.81821 20.9712 4.62917 20.9811 4.44365 20.9555C4.25812 20.93 4.07985 20.8696 3.91933 20.7777L1.45839 19.4445C1.24316 19.3279 1.06425 19.1595 0.939781 18.9563C0.815316 18.753 0.749721 18.5222 0.749641 18.2872V15.6207C0.749641 15.2671 0.897799 14.9279 1.16152 14.6779C1.42524 14.4279 1.78293 14.2874 2.15589 14.2874ZM21.8434 14.2874C22.2163 14.2874 22.574 14.4279 22.8378 14.6779C23.1015 14.9279 23.2496 15.2671 23.2496 15.6207V18.2872C23.2496 18.5222 23.184 18.753 23.0595 18.9563C22.935 19.1595 22.7561 19.3279 22.5409 19.4445L20.0799 20.7777C19.9194 20.8696 19.7412 20.93 19.5556 20.9555C19.3701 20.9811 19.1811 20.9712 18.9996 20.9265C18.8182 20.8817 18.648 20.8031 18.4991 20.6951C18.3502 20.5871 18.2256 20.4519 18.1326 20.2976C18.0396 20.1433 17.98 19.9729 17.9575 19.7964C17.935 19.62 17.9499 19.441 18.0013 19.2701C18.0528 19.0992 18.1398 18.9398 18.2572 18.8012C18.3746 18.6626 18.52 18.5477 18.6849 18.4632L20.4371 17.5139V15.6207C20.4371 15.2671 20.5853 14.9279 20.849 14.6779C21.1127 14.4279 21.4704 14.2874 21.8434 14.2874ZM8.31808 21.6257C8.50314 21.3188 8.80915 21.0942 9.16884 21.0012C9.52852 20.9082 9.91245 20.9544 10.2362 21.1297L10.5934 21.323V20.9537C10.5934 20.6001 10.7415 20.261 11.0053 20.011C11.269 19.7609 11.6267 19.6205 11.9996 19.6205C12.3726 19.6205 12.7303 19.7609 12.994 20.011C13.2577 20.261 13.4059 20.6001 13.4059 20.9537V21.323L13.7631 21.1297C13.9236 21.0379 14.1019 20.9775 14.2874 20.9519C14.4729 20.9264 14.662 20.9363 14.8434 20.981C15.0248 21.0257 15.195 21.1044 15.3439 21.2124C15.4928 21.3204 15.6174 21.4555 15.7104 21.6099C15.8034 21.7642 15.863 21.9346 15.8855 22.111C15.9081 22.2875 15.8932 22.4664 15.8417 22.6373C15.7902 22.8083 15.7032 22.9677 15.5858 23.1063C15.4684 23.2448 15.323 23.3598 15.1581 23.4443L12.7182 24.7669C12.5011 24.8901 12.2527 24.9552 11.9996 24.9552C11.7466 24.9552 11.4982 24.8901 11.281 24.7669L8.8412 23.4443C8.51755 23.2688 8.28064 22.9787 8.18254 22.6377C8.08444 22.2966 8.13319 21.9326 8.31808 21.6257Z" fill="#656667"/>
</svg>
