<svg width="24" height="25" viewBox="0 0 24 25" fill="none" xmlns="http://www.w3.org/2000/svg">
<path d="M24.0001 2.45434C23.9999 2.23249 23.9506 2.01344 23.8556 1.81296C23.7606 1.61248 23.6224 1.43556 23.4508 1.29495C23.2792 1.15435 23.0785 1.05355 22.8633 0.999832C22.648 0.94611 22.4236 0.940799 22.206 0.98428L7.20545 3.98439C6.86552 4.05234 6.55962 4.23592 6.33975 4.50392C6.11988 4.77192 5.99961 5.1078 5.9994 5.45445V19.126C5.50764 19.0114 5.00428 18.954 4.49935 18.955C2.01375 18.955 -0.000823975 20.2975 -0.000823975 21.9551C-0.000823975 23.6126 2.01375 24.9552 4.49935 24.9552C6.98494 24.9552 8.99952 23.6126 8.99952 21.9551V9.68461L21 7.28452V16.1259C20.5082 16.0113 20.0048 15.9539 19.4999 15.9548C17.0143 15.9548 14.9997 17.2974 14.9997 18.955C14.9997 20.6125 17.0143 21.9551 19.4999 21.9551C21.9855 21.9551 24.0001 20.6125 24.0001 18.955V2.45434Z" fill="#656667"/>
</svg>
