<svg width="24" height="25" viewBox="0 0 24 25" fill="none" xmlns="http://www.w3.org/2000/svg">
<path fill-rule="evenodd" clip-rule="evenodd" d="M13.671 1.01565C13.9319 1.10077 14.1599 1.27002 14.3218 1.49879C14.4837 1.72755 14.5709 2.0039 14.5709 2.28765V8.95432H19.7134C19.9486 8.95421 20.1793 9.021 20.3804 9.14742C20.5815 9.27384 20.7453 9.45504 20.854 9.67131C20.9627 9.88758 21.0122 10.1306 20.9969 10.374C20.9817 10.6174 20.9024 10.8518 20.7676 11.0517L11.7682 24.385C11.6116 24.6177 11.3875 24.7925 11.1284 24.884C10.8694 24.9755 10.5889 24.9789 10.3279 24.8936C10.0669 24.8084 9.83892 24.639 9.67713 24.4101C9.51534 24.1813 9.42819 23.9048 9.42837 23.621V16.9543H4.28584C4.05067 16.9544 3.81998 16.8876 3.61887 16.7612C3.41777 16.6348 3.25394 16.4536 3.14524 16.2373C3.03653 16.0211 2.9871 15.778 3.00233 15.5346C3.01756 15.2913 3.09687 15.0569 3.23162 14.857L12.231 1.52365C12.3879 1.29136 12.6121 1.117 12.871 1.02588C13.13 0.934765 13.4102 0.931647 13.671 1.01698V1.01565Z" fill="#656667"/>
</svg>
