<svg width="24" height="25" viewBox="0 0 24 25" fill="none" xmlns="http://www.w3.org/2000/svg">
<path d="M12.1072 4.07483C10.2834 4.07483 8.48847 4.88416 7.13207 6.40249C5.77012 7.92706 4.97737 10.0318 4.97737 12.2607V14.2353C5.54652 14.7035 5.90888 15.4093 5.90888 16.1989V18.7514C5.90888 20.161 4.75394 21.3038 3.32926 21.3038C1.90457 21.3038 0.749634 20.161 0.749634 18.7514V16.1989C0.749634 15.3449 1.17353 14.5888 1.8245 14.1255V12.2607C1.8245 9.32015 2.86627 6.46717 4.76978 4.3364C6.67885 2.1994 9.31285 0.955185 12.1072 0.955185C14.9015 0.955185 17.5355 2.1994 19.4445 4.3364C21.348 6.46717 22.3898 9.32015 22.3898 12.2607V14.2965C22.9175 14.7638 23.2496 15.443 23.2496 16.1989V18.7514C23.2496 19.7474 22.673 20.6102 21.8321 21.0307C21.3887 22.2621 20.2663 23.1768 19.0823 23.7626C17.4828 24.5539 15.4242 24.9552 13.3611 24.9552C12.4905 24.9552 11.7847 24.2568 11.7847 23.3954C11.7847 22.5339 12.4905 21.8355 13.3611 21.8355C15.0609 21.8355 16.611 21.4973 17.6723 20.9723C18.1652 20.7284 18.4575 20.4991 18.6305 20.3144C18.2919 19.8825 18.0904 19.3402 18.0904 18.7514V16.1989C18.0904 15.3139 18.5456 14.5341 19.2369 14.0763V12.2607C19.2369 10.0318 18.4442 7.92706 17.0822 6.40249C15.7258 4.88416 13.9309 4.07483 12.1072 4.07483Z" fill="#656667"/>
</svg>
