<svg width="24" height="25" viewBox="0 0 24 25" fill="none" xmlns="http://www.w3.org/2000/svg">
<path fill-rule="evenodd" clip-rule="evenodd" d="M2.39963 0.955185C1.07415 0.955185 -0.000366211 2.0297 -0.000366211 3.35518V22.5552C-0.000366211 23.8807 1.07415 24.9552 2.39963 24.9552H21.5996C22.9251 24.9552 23.9996 23.8807 23.9996 22.5552V3.35519C23.9996 2.0297 22.9251 0.955185 21.5996 0.955185H2.39963ZM3.2 1.95518C1.98497 1.95518 1 2.94016 1 4.15519V21.7552C1 22.9702 1.98497 23.9552 3.2 23.9552H20.8C22.015 23.9552 23 22.9702 23 21.7552V4.15518C23 2.94016 22.015 1.95518 20.8 1.95518H3.2Z" fill="#656667"/>
<path fill-rule="evenodd" clip-rule="evenodd" d="M4 3C2.89543 3 2 3.89543 2 5V21C2 22.1046 2.89543 23 4 23H20C21.1046 23 22 22.1046 22 21V5C22 3.89543 21.1046 3 20 3H4ZM7.99963 20.9552C10.2088 20.9552 11.9996 19.1643 11.9996 16.9552C11.9996 14.746 10.2088 12.9552 7.99963 12.9552C5.79049 12.9552 3.99963 14.746 3.99963 16.9552C3.99963 19.1643 5.79049 20.9552 7.99963 20.9552ZM15.9996 10.9552C15.9996 12.0598 15.1042 12.9552 13.9996 12.9552C12.8951 12.9552 11.9996 12.0598 11.9996 10.9552C11.9996 9.85062 12.8951 8.95518 13.9996 8.95518C15.1042 8.95518 15.9996 9.85062 15.9996 10.9552Z" fill="#656667"/>
</svg>
