<svg width="24" height="25" viewBox="0 0 24 25" fill="none" xmlns="http://www.w3.org/2000/svg">
<path fill-rule="evenodd" clip-rule="evenodd" d="M2.39963 0.955185C1.07414 0.955185 -0.00037384 2.0297 -0.00037384 3.35518V22.5552C-0.00037384 23.8807 1.07414 24.9552 2.39963 24.9552H21.5996C22.9251 24.9552 23.9996 23.8807 23.9996 22.5552V3.35519C23.9996 2.0297 22.9251 0.955185 21.5996 0.955185H2.39963ZM3.19999 1.95518C1.98497 1.95518 0.999992 2.94016 0.999992 4.15519V21.7552C0.999992 22.9702 1.98497 23.9552 3.19999 23.9552H20.8C22.015 23.9552 23 22.9702 23 21.7552V4.15518C23 2.94016 22.015 1.95518 20.8 1.95518H3.19999Z" fill="#656667"/>
<path fill-rule="evenodd" clip-rule="evenodd" d="M4 3C2.89543 3 2 3.89543 2 5V21C2 22.1046 2.89543 23 4 23H20C21.1046 23 22 22.1046 22 21V5C22 3.89543 21.1046 3 20 3H4ZM12.4998 11C11.9475 11 11.4998 11.4477 11.4998 12V20C11.4998 20.5523 11.9475 21 12.4998 21C13.0521 21 13.4998 20.5523 13.4998 20V12C13.4998 11.4477 13.0521 11 12.4998 11Z" fill="#656667"/>
</svg>
