<svg width="24" height="25" viewBox="0 0 24 25" fill="none" xmlns="http://www.w3.org/2000/svg">
<path fill-rule="evenodd" clip-rule="evenodd" d="M14.2348 2.71021C13.6648 0.370176 10.3348 0.370176 9.76478 2.71021C9.67968 3.06184 9.51276 3.38841 9.2776 3.66334C9.04245 3.93828 8.74571 4.15381 8.41152 4.29239C8.07734 4.43098 7.71515 4.4887 7.35445 4.46087C6.99374 4.43304 6.64469 4.32044 6.33572 4.13223C4.27769 2.87822 1.92265 5.23325 3.17667 7.29128C3.98669 8.62031 3.26818 10.3543 1.75615 10.7218C-0.585384 11.2903 -0.585384 14.6219 1.75615 15.1889C2.10788 15.2741 2.4345 15.4412 2.70943 15.6765C2.98437 15.9119 3.19983 16.2088 3.33829 16.5432C3.47674 16.8775 3.53427 17.2399 3.50618 17.6007C3.4781 17.9615 3.3652 18.3105 3.17667 18.6195C1.92265 20.6775 4.27769 23.0325 6.33572 21.7785C6.64464 21.59 6.99371 21.4771 7.35452 21.449C7.71532 21.4209 8.07766 21.4784 8.41203 21.6169C8.74639 21.7554 9.04333 21.9708 9.27866 22.2458C9.514 22.5207 9.68107 22.8473 9.76628 23.199C10.3348 25.5406 13.6663 25.5406 14.2333 23.199C14.3188 22.8475 14.4861 22.5211 14.7215 22.2463C14.9568 21.9716 15.2537 21.7563 15.588 21.6179C15.9223 21.4795 16.2845 21.4219 16.6452 21.4498C17.0059 21.4777 17.3549 21.5903 17.6639 21.7785C19.7219 23.0325 22.077 20.6775 20.823 18.6195C20.6348 18.3105 20.5221 17.9614 20.4942 17.6007C20.4663 17.24 20.5239 16.8778 20.6623 16.5436C20.8007 16.2093 21.016 15.9124 21.2908 15.677C21.5655 15.4416 21.8919 15.2744 22.2435 15.1889C24.585 14.6204 24.585 11.2888 22.2435 10.7218C21.8918 10.6366 21.5651 10.4696 21.2902 10.2342C21.0153 9.99889 20.7998 9.70195 20.6613 9.36759C20.5229 9.03322 20.4654 8.67088 20.4934 8.31008C20.5215 7.94927 20.6344 7.6002 20.823 7.29128C22.077 5.23325 19.7219 2.87822 17.6639 4.13223C17.355 4.32076 17.0059 4.43366 16.6451 4.46174C16.2843 4.48983 15.922 4.4323 15.5876 4.29385C15.2532 4.15539 14.9563 3.93993 14.721 3.66499C14.4856 3.39006 14.3186 3.06344 14.2333 2.71171L14.2348 2.71021ZM11.9998 17.4554C13.1933 17.4554 14.3379 16.9813 15.1818 16.1374C16.0258 15.2935 16.4999 14.1489 16.4999 12.9554C16.4999 11.7619 16.0258 10.6173 15.1818 9.77334C14.3379 8.92942 13.1933 8.4553 11.9998 8.4553C10.8063 8.4553 9.66171 8.92942 8.81778 9.77334C7.97386 10.6173 7.49974 11.7619 7.49974 12.9554C7.49974 14.1489 7.97386 15.2935 8.81778 16.1374C9.66171 16.9813 10.8063 17.4554 11.9998 17.4554Z" fill="#656667"/>
</svg>
