<svg width="24" height="25" viewBox="0 0 24 25" fill="none" xmlns="http://www.w3.org/2000/svg">
<path fill-rule="evenodd" clip-rule="evenodd" d="M21.8528 10.7027C16.4106 5.26051 7.58865 5.26051 2.14649 10.7027C1.90757 10.9334 1.58757 11.0611 1.25542 11.0582C0.923273 11.0553 0.605544 10.9221 0.37067 10.6872C0.135796 10.4524 0.00256797 10.1346 -0.000318323 9.80248C-0.00320462 9.47033 0.124481 9.15033 0.355239 8.91141C6.7855 2.47989 17.2138 2.47989 23.644 8.91141C23.8748 9.15033 24.0025 9.47033 23.9996 9.80248C23.9967 10.1346 23.8635 10.4524 23.6286 10.6872C23.3937 10.9221 23.076 11.0553 22.7438 11.0582C22.4117 11.0611 22.0917 10.9334 21.8528 10.7027ZM18.2703 14.2852C17.4468 13.4616 16.4692 12.8084 15.3933 12.3627C14.3174 11.917 13.1642 11.6876 11.9996 11.6876C10.8351 11.6876 9.68187 11.917 8.60595 12.3627C7.53003 12.8084 6.55243 13.4616 5.72899 14.2852C5.49007 14.5159 5.17007 14.6436 4.83792 14.6407C4.50577 14.6378 4.18805 14.5046 3.95317 14.2697C3.7183 14.0349 3.58507 13.7171 3.58218 13.385C3.5793 13.0528 3.70698 12.7328 3.93774 12.4939C4.99644 11.4352 6.2533 10.5954 7.63656 10.0224C9.01983 9.44944 10.5024 9.15454 11.9996 9.15454C13.4969 9.15454 14.9794 9.44944 16.3627 10.0224C17.746 10.5954 19.0028 11.4352 20.0615 12.4939C20.2923 12.7328 20.42 13.0528 20.4171 13.385C20.4142 13.7171 20.281 14.0349 20.0461 14.2697C19.8112 14.5046 19.4935 14.6378 19.1613 14.6407C18.8292 14.6436 18.5092 14.5159 18.2703 14.2852ZM14.6852 17.8702C13.9726 17.1577 13.0061 16.7575 11.9984 16.7575C10.9906 16.7575 10.0242 17.1577 9.31149 17.8702C9.07379 18.1079 8.7514 18.2414 8.41523 18.2414C8.07907 18.2414 7.75668 18.1079 7.51897 17.8702C7.28127 17.6325 7.14773 17.3101 7.14773 16.9739C7.14773 16.6378 7.28127 16.3154 7.51897 16.0777C8.10716 15.4893 8.80549 15.0226 9.57407 14.7042C10.3427 14.3858 11.1664 14.2219 11.9984 14.2219C12.8303 14.2219 13.6541 14.3858 14.4227 14.7042C15.1912 15.0226 15.8896 15.4893 16.4778 16.0777C16.7155 16.3154 16.849 16.6378 16.849 16.9739C16.849 17.3101 16.7155 17.6325 16.4778 17.8702C16.2401 18.1079 15.9177 18.2414 15.5815 18.2414C15.2453 18.2414 14.9229 18.1079 14.6852 17.8702ZM10.7328 20.5558C10.7328 20.2198 10.8663 19.8976 11.1039 19.66C11.3414 19.4225 11.6637 19.289 11.9996 19.289H12.0123C12.3483 19.289 12.6705 19.4225 12.9081 19.66C13.1456 19.8976 13.2791 20.2198 13.2791 20.5558C13.2791 20.8918 13.1456 21.214 12.9081 21.4516C12.6705 21.6891 12.3483 21.8226 12.0123 21.8226H11.9996C11.6637 21.8226 11.3414 21.6891 11.1039 21.4516C10.8663 21.214 10.7328 20.8918 10.7328 20.5558Z" fill="#656667"/>
</svg>
