<svg width="24" height="25" viewBox="0 0 24 25" fill="none" xmlns="http://www.w3.org/2000/svg">
<path fill-rule="evenodd" clip-rule="evenodd" d="M2.39963 0.955185C1.07414 0.955185 -0.00037384 2.0297 -0.00037384 3.35518V22.5552C-0.00037384 23.8807 1.07414 24.9552 2.39963 24.9552H21.5996C22.9251 24.9552 23.9996 23.8807 23.9996 22.5552V3.35519C23.9996 2.0297 22.9251 0.955185 21.5996 0.955185H2.39963ZM3.19999 1.95518C1.98497 1.95518 0.999992 2.94016 0.999992 4.15519V21.7552C0.999992 22.9702 1.98497 23.9552 3.19999 23.9552H20.8C22.015 23.9552 23 22.9702 23 21.7552V4.15518C23 2.94016 22.015 1.95518 20.8 1.95518H3.19999Z" fill="#656667"/>
<path d="M3.99963 2.95518C2.89506 2.95518 1.99963 3.85062 1.99963 4.95519V12.9828C2.01425 13.5223 2.4562 13.9552 2.99925 13.9552H9.08604C9.60324 13.9552 10.0351 13.5608 10.0819 13.0457L10.9001 4.04572C10.9534 3.4601 10.4923 2.95518 9.90422 2.95518H3.99963Z" fill="#656667"/>
<path d="M14.0947 2.95518C13.5066 2.95518 13.0455 3.4601 13.0988 4.04572L13.9169 13.0457C13.9638 13.5608 14.3956 13.9552 14.9128 13.9552H20.9996C21.5519 13.9552 21.9996 13.5075 21.9996 12.9552V4.95518C21.9996 3.85062 21.1042 2.95518 19.9996 2.95518H14.0947Z" fill="#656667"/>
<path d="M21.9996 15.9552C21.9996 15.4029 21.5519 14.9552 20.9996 14.9552H14.8824C14.3781 14.9552 13.9527 15.3307 13.8901 15.8312L13.1401 21.8312C13.0655 22.428 13.5309 22.9552 14.1324 22.9552H19.9996C21.1042 22.9552 21.9996 22.0598 21.9996 20.9552V15.9552Z" fill="#656667"/>
<path d="M9.86647 22.9552C10.468 22.9552 10.9334 22.428 10.8587 21.8312L10.1087 15.8312C10.0462 15.3307 9.62079 14.9552 9.11647 14.9552H2.99925C2.4562 14.9552 2.01425 15.3881 1.99963 15.9276V20.9552C1.99963 22.0598 2.89506 22.9552 3.99963 22.9552H9.86647Z" fill="#656667"/>
</svg>
