<svg width="48" height="48" viewBox="0 0 48 48" fill="none" xmlns="http://www.w3.org/2000/svg">
<path d="M31.7793 0.165527H5.29655C2.37135 0.165527 0 2.53687 0 5.46208V10.7586C0 13.6838 2.37135 16.0552 5.29655 16.0552H31.7793C34.5933 16.0552 36.8948 13.8607 37.0657 11.0897L37.0759 11.0897H39.7241C40.3387 11.0897 40.9281 11.3338 41.3627 11.7684C41.7972 12.203 42.0414 12.7924 42.0414 13.4069C42.0414 16.1286 40.9602 18.7388 39.0357 20.6633C37.1112 22.5878 34.501 23.669 31.7793 23.669H18.5379C16.8925 23.669 15.5586 25.0029 15.5586 26.6483V31.9449C15.5586 31.9517 15.5586 31.9585 15.5587 31.9653C14.2523 32.1282 13.2414 33.2426 13.2414 34.5931V45.1862C13.2414 46.6488 14.4271 47.8345 15.8897 47.8345H21.1862C22.6488 47.8345 23.8345 46.6488 23.8345 45.1862V34.5931C23.8345 33.2426 22.8236 32.1282 21.5172 31.9653C21.5172 31.9585 21.5172 31.9517 21.5172 31.9449V29.6276H31.7793C36.0813 29.6276 40.2071 27.9187 43.2491 24.8767C46.291 21.8347 48 17.7089 48 13.4069C48 11.212 47.1281 9.10704 45.5761 7.55502C44.024 6.00299 41.919 5.13107 39.7241 5.13107H37.0759L37.0657 5.13111C36.8948 2.36008 34.5934 0.165527 31.7793 0.165527Z" fill="#8AC554"/>
</svg>
