<svg width="48" height="48" viewBox="0 0 48 48" fill="none" xmlns="http://www.w3.org/2000/svg">
<path fill-rule="evenodd" clip-rule="evenodd" d="M16 2.66667C16 1.95942 16.281 1.28115 16.781 0.781048C17.2811 0.280951 17.9594 0 18.6667 0C19.3739 0 20.0522 0.280951 20.5523 0.781048C21.0524 1.28115 21.3333 1.95942 21.3333 2.66667V5.33333H26.6667V2.66667C26.6667 1.95942 26.9476 1.28115 27.4477 0.781048C27.9478 0.280951 28.6261 0 29.3333 0C30.0406 0 30.7189 0.280951 31.219 0.781048C31.719 1.28115 32 1.95942 32 2.66667V5.33333H37.3333C38.7478 5.33333 40.1044 5.89524 41.1046 6.89543C42.1048 7.89562 42.6667 9.25218 42.6667 10.6667V16H45.3333C46.0406 16 46.7189 16.281 47.219 16.781C47.7191 17.2811 48 17.9594 48 18.6667C48 19.3739 47.7191 20.0522 47.219 20.5523C46.7189 21.0524 46.0406 21.3333 45.3333 21.3333H42.6667V26.6667H45.3333C46.0406 26.6667 46.7189 26.9476 47.219 27.4477C47.7191 27.9478 48 28.6261 48 29.3333C48 30.0406 47.7191 30.7189 47.219 31.219C46.7189 31.719 46.0406 32 45.3333 32H42.6667V37.3333C42.6667 38.7478 42.1048 40.1044 41.1046 41.1046C40.1044 42.1048 38.7478 42.6667 37.3333 42.6667H32V45.3333C32 46.0406 31.719 46.7189 31.219 47.219C30.7189 47.7191 30.0406 48 29.3333 48C28.6261 48 27.9478 47.7191 27.4477 47.219C26.9476 46.7189 26.6667 46.0406 26.6667 45.3333V42.6667H21.3333V45.3333C21.3333 46.0406 21.0524 46.7189 20.5523 47.219C20.0522 47.7191 19.3739 48 18.6667 48C17.9594 48 17.2811 47.7191 16.781 47.219C16.281 46.7189 16 46.0406 16 45.3333V42.6667H10.6667C9.25218 42.6667 7.89562 42.1048 6.89543 41.1046C5.89524 40.1044 5.33333 38.7478 5.33333 37.3333V32H2.66667C1.95942 32 1.28115 31.719 0.781048 31.219C0.280951 30.7189 0 30.0406 0 29.3333C0 28.6261 0.280951 27.9478 0.781048 27.4477C1.28115 26.9476 1.95942 26.6667 2.66667 26.6667H5.33333V21.3333H2.66667C1.95942 21.3333 1.28115 21.0524 0.781048 20.5523C0.280951 20.0522 0 19.3739 0 18.6667C0 17.9594 0.280951 17.2811 0.781048 16.781C1.28115 16.281 1.95942 16 2.66667 16H5.33333V10.6667C5.33333 9.25218 5.89524 7.89562 6.89543 6.89543C7.89562 5.89524 9.25218 5.33333 10.6667 5.33333H16V2.66667ZM10.6667 10.6667H37.3333V37.3333H10.6667V10.6667Z" fill="#8AC554"/>
</svg>
