<svg width="48" height="48" viewBox="0 0 48 48" fill="none" xmlns="http://www.w3.org/2000/svg">
<path fill-rule="evenodd" clip-rule="evenodd" d="M6.249 21H12.087C12.354 16.362 13.236 12.09 14.598 8.646C12.405 9.98976 10.5252 11.7876 9.08513 13.9185C7.64501 16.0494 6.67795 18.4641 6.249 21ZM24 0C17.6348 0 11.5303 2.52856 7.02944 7.02944C2.52856 11.5303 0 17.6348 0 24C0 30.3652 2.52856 36.4697 7.02944 40.9706C11.5303 45.4714 17.6348 48 24 48C30.3652 48 36.4697 45.4714 40.9706 40.9706C45.4714 36.4697 48 30.3652 48 24C48 17.6348 45.4714 11.5303 40.9706 7.02944C36.4697 2.52856 30.3652 0 24 0ZM24 6C23.772 6 23.304 6.096 22.605 6.786C21.891 7.488 21.114 8.655 20.394 10.332C19.227 13.053 18.375 16.758 18.096 21H29.904C29.625 16.758 28.773 13.053 27.606 10.332C26.886 8.652 26.106 7.488 25.395 6.786C24.696 6.096 24.228 6 24 6ZM35.913 21C35.646 16.362 34.764 12.09 33.402 8.646C35.595 9.98976 37.4748 11.7876 38.9149 13.9185C40.355 16.0494 41.322 18.4641 41.751 21H35.913ZM29.904 27H18.096C18.375 31.242 19.227 34.947 20.394 37.668C21.114 39.348 21.894 40.512 22.605 41.214C23.304 41.904 23.772 42 24 42C24.228 42 24.696 41.904 25.395 41.214C26.109 40.512 26.889 39.345 27.606 37.668C28.773 34.947 29.625 31.242 29.904 27ZM33.402 39.354C34.764 35.913 35.646 31.638 35.913 27H41.751C41.322 29.5359 40.355 31.9506 38.9149 34.0815C37.4748 36.2124 35.595 38.0102 33.402 39.354ZM14.598 39.354C13.236 35.91 12.354 31.638 12.09 27H6.249C6.67795 29.5359 7.64501 31.9506 9.08513 34.0815C10.5252 36.2124 12.405 38.0102 14.598 39.354Z" fill="#8AC554"/>
</svg>
