<svg width="48" height="48" viewBox="0 0 48 48" fill="none" xmlns="http://www.w3.org/2000/svg">
<path fill-rule="evenodd" clip-rule="evenodd" d="M24 48C37.2548 48 48 37.2548 48 24C48 10.7452 37.2548 0 24 0C10.7452 0 0 10.7452 0 24C0 37.2548 10.7452 48 24 48ZM24 6C27.3137 6 30 8.68628 30 12V18H36C39.3137 18 42 20.6863 42 24C42 27.3137 39.3137 30 36 30H30V36C30 39.3137 27.3137 42 24 42C20.6863 42 18 39.3137 18 36V30H12C8.68629 30 6 27.3137 6 24C6 20.6863 8.68629 18 12 18H18V12C18 8.68628 20.6863 6 24 6Z" fill="#8AC554"/>
</svg>
