<svg width="48" height="48" viewBox="0 0 48 48" fill="none" xmlns="http://www.w3.org/2000/svg">
<path fill-rule="evenodd" clip-rule="evenodd" d="M0 9C0 7.4087 0.632141 5.88258 1.75736 4.75736C2.88258 3.63214 4.4087 3 6 3H42C43.5913 3 45.1174 3.63214 46.2426 4.75736C47.3679 5.88258 48 7.4087 48 9V39C48 40.5913 47.3679 42.1174 46.2426 43.2426C45.1174 44.3679 43.5913 45 42 45H6C4.4087 45 2.88258 44.3679 1.75736 43.2426C0.632141 42.1174 0 40.5913 0 39V9ZM9.879 12.879C10.4416 12.3166 11.2045 12.0006 12 12.0006C12.7955 12.0006 13.5584 12.3166 14.121 12.879L23.121 21.879C23.6834 22.4416 23.9994 23.2045 23.9994 24C23.9994 24.7955 23.6834 25.5584 23.121 26.121L14.121 35.121C13.5552 35.6675 12.7974 35.9699 12.0108 35.963C11.2242 35.9562 10.4718 35.6407 9.91554 35.0845C9.35932 34.5282 9.04381 33.7758 9.03698 32.9892C9.03014 32.2026 9.33253 31.4448 9.879 30.879L16.758 24L9.879 17.121C9.31659 16.5584 9.00064 15.7955 9.00064 15C9.00064 14.2045 9.31659 13.4416 9.879 12.879ZM27 30C26.2044 30 25.4413 30.3161 24.8787 30.8787C24.3161 31.4413 24 32.2044 24 33C24 33.7956 24.3161 34.5587 24.8787 35.1213C25.4413 35.6839 26.2044 36 27 36H36C36.7957 36 37.5587 35.6839 38.1213 35.1213C38.6839 34.5587 39 33.7956 39 33C39 32.2044 38.6839 31.4413 38.1213 30.8787C37.5587 30.3161 36.7957 30 36 30H27Z" fill="#8AC554"/>
</svg>
