<svg width="24" height="25" viewBox="0 0 24 25" fill="none" xmlns="http://www.w3.org/2000/svg">
<path fill-rule="evenodd" clip-rule="evenodd" d="M24 8.6875C24 8.5151 23.9112 8.35487 23.765 8.2635L12.265 1.076C12.1029 0.974666 11.8971 0.974666 11.735 1.076L0.235001 8.2635C0.0888098 8.35487 0 8.5151 0 8.6875V24.4104C0 24.6865 0.223857 24.9104 0.5 24.9104H23.5C23.7761 24.9104 24 24.6865 24 24.4104V8.6875ZM17.5 15.2863C17.5 18.3239 15.0376 20.7863 12 20.7863C8.96243 20.7863 6.5 18.3239 6.5 15.2863C6.5 13.3555 7.4949 11.6571 9 10.6758V8.41037C6.35114 9.5677 4.5 12.2108 4.5 15.2863C4.5 19.4284 7.85786 22.7863 12 22.7863C16.1421 22.7863 19.5 19.4284 19.5 15.2863C19.5 12.2108 17.6489 9.5677 15 8.41037V10.6758C16.5051 11.6571 17.5 13.3555 17.5 15.2863ZM12 6.91037C11.1716 6.91037 10.5 7.58194 10.5 8.41037V11.4104C10.5 12.2388 11.1716 12.9104 12 12.9104C12.8284 12.9104 13.5 12.2388 13.5 11.4104V8.41037C13.5 7.58194 12.8284 6.91037 12 6.91037Z" fill="#656667"/>
</svg>
