<svg width="24" height="25" viewBox="0 0 24 25" fill="none" xmlns="http://www.w3.org/2000/svg">
<path d="M11.988 0.955199C10.3758 0.952689 8.78006 1.27918 7.2984 1.91469C5.81675 2.5502 4.48035 3.48136 3.371 4.6512C10.391 3.7762 14.772 4.0682 16.66 4.3112C20.412 4.8942 20.218 7.7152 20.218 7.7152L8.237 20.0672C10.536 20.2872 15.134 20.4332 22.033 19.4362C23.283 17.5104 23.9473 15.2631 23.945 12.9672C23.945 6.3292 18.595 0.955199 11.988 0.955199ZM12.22 5.2652C9.769 5.2512 6.448 5.4112 2.257 5.9882C0.854004 7.95819 0.0550041 10.3652 0.0550041 12.9672C0.0550041 19.5812 5.38 24.9552 11.988 24.9552C15.618 24.9552 18.838 23.3252 21.041 20.7732C13.755 21.7212 9.228 21.4042 7.291 21.1612C3.516 20.6012 3.734 17.7572 3.734 17.7572L15.691 5.4292C14.537 5.32283 13.3789 5.26845 12.22 5.2662V5.2652Z" fill="#656667"/>
</svg>
