<svg width="24" height="24" viewBox="0 0 24 24" fill="none" xmlns="http://www.w3.org/2000/svg">
<path d="M12.0068 23.0181C11.7942 23.0181 11.635 23.0006 11.4223 22.966C9.18979 22.1442 9.18969 19.1728 9.18969 17.7419C9.18969 17.6356 9.18969 17.5367 9.18969 17.4479V16.3115H18.2791C18.2791 16.3131 18.3854 16.3173 18.5449 16.3173C19.0233 16.3173 19.9803 16.2636 20.8839 15.9053C21.3623 15.705 21.7342 15.4344 22 15.1027V15.7363C22 16.9993 21.3622 18.1767 20.246 18.8082L13.7609 22.5445C13.2293 22.8539 12.6447 23.0181 12.0068 23.0181ZM3.7677 18.8082C2.8109 18.2713 2.22629 17.3528 2.01367 16.287C1.8542 14.1066 3.12983 13.1742 3.7677 12.6724C4.13979 12.4306 5.25617 11.6954 7.06346 10.5467H8.17952C8.39214 10.5467 8.60466 10.7477 8.60466 10.9954V12.7596C8.60466 12.7814 8.60466 15.1367 8.60466 17.4495C8.60466 17.5378 8.60466 17.634 8.60466 17.7387C8.60466 18.8252 8.60497 20.7239 9.45547 22.1038L3.7677 18.8082ZM18.5449 15.7379C18.3854 15.7379 18.2791 15.7326 18.2791 15.7326V15.7321H15.462V10.9954C15.462 10.7514 15.6748 10.5526 15.9406 10.5526C16.3127 10.5552 16.7911 10.5584 17.2695 10.5584C17.801 10.5584 18.1729 10.5542 18.3855 10.5467C19.3423 10.5127 20.7244 10.1194 21.5749 9.12322C21.7343 8.8904 21.8937 8.63685 22 8.36575V13.4538C22 14.3596 21.575 14.9868 20.6182 15.3701C19.8208 15.7023 18.917 15.7379 18.5449 15.7379ZM2.01367 8.26476C2.01367 7.00072 2.65143 5.82385 3.7677 5.19183C4.51188 4.76765 5.25596 4.55343 6.05329 4.55343C7.0101 4.55343 8.07311 4.89788 9.13622 5.57774C9.8804 6.06624 10.6779 6.58451 11.4753 7.06822L9.2961 8.44814C9.08348 8.57572 4.24631 11.6183 3.44898 12.2078C3.07689 12.4981 2.43891 12.9589 2.01367 13.7292V8.26476ZM17.163 9.97849L14.824 8.52628C14.824 8.50927 11.8475 6.62969 9.45547 5.0903C8.28604 4.34931 7.11641 3.9735 6.05329 3.9735C6.00014 3.9735 5.94729 3.9751 5.84098 3.97722L10.2528 1.45658C10.7844 1.14615 11.369 0.981903 12.0068 0.981903C12.6447 0.981903 13.2293 1.14615 13.7609 1.45658L20.246 5.19183C20.8838 5.54213 21.3623 6.06093 21.6813 6.69401C21.7344 7.51261 21.5747 8.20363 21.0963 8.7506C20.3521 9.66009 19.0234 9.94394 18.3855 9.9684C18.1729 9.97477 17.801 9.97849 17.2695 9.97849H17.163Z" fill="#656667"/>
</svg>
