<svg width="24" height="25" viewBox="0 0 24 25" fill="none" xmlns="http://www.w3.org/2000/svg">
<path fill-rule="evenodd" clip-rule="evenodd" d="M3 3.95518C3 3.15954 3.31607 2.39647 3.87868 1.83386C4.44129 1.27126 5.20435 0.955185 6 0.955185H12.879C13.6746 0.955355 14.4375 1.27154 15 1.83418L20.121 6.95518C20.6836 7.51766 20.9998 8.2806 21 9.07619V21.9552C21 22.7508 20.6839 23.5139 20.1213 24.0765C19.5587 24.6391 18.7956 24.9552 18 24.9552H6C5.20435 24.9552 4.44129 24.6391 3.87868 24.0765C3.31607 23.5139 3 22.7508 3 21.9552V3.95518ZM6 12.9552C6 12.5574 6.15804 12.1758 6.43934 11.8945C6.72064 11.6132 7.10218 11.4552 7.5 11.4552H16.5C16.8978 11.4552 17.2794 11.6132 17.5607 11.8945C17.842 12.1758 18 12.5574 18 12.9552C18 13.353 17.842 13.7345 17.5607 14.0158C17.2794 14.2971 16.8978 14.4552 16.5 14.4552H7.5C7.10218 14.4552 6.72064 14.2971 6.43934 14.0158C6.15804 13.7345 6 13.353 6 12.9552ZM7.5 17.4552C7.10218 17.4552 6.72064 17.6132 6.43934 17.8945C6.15804 18.1758 6 18.5574 6 18.9552C6 19.353 6.15804 19.7345 6.43934 20.0158C6.72064 20.2971 7.10218 20.4552 7.5 20.4552H16.5C16.8978 20.4552 17.2794 20.2971 17.5607 20.0158C17.842 19.7345 18 19.353 18 18.9552C18 18.5574 17.842 18.1758 17.5607 17.8945C17.2794 17.6132 16.8978 17.4552 16.5 17.4552H7.5Z" fill="#656667"/>
</svg>
