<svg width="24" height="25" viewBox="0 0 24 25" fill="none" xmlns="http://www.w3.org/2000/svg">
<path fill-rule="evenodd" clip-rule="evenodd" d="M6 6.95518V5.45518C6 4.26171 6.47411 3.11712 7.31802 2.2732C8.16193 1.42929 9.30653 0.955185 10.5 0.955185H13.5C14.6935 0.955185 15.8381 1.42929 16.682 2.2732C17.5259 3.11712 18 4.26171 18 5.45518V6.95518H21C21.7956 6.95518 22.5587 7.27125 23.1213 7.83386C23.6839 8.39647 24 9.15953 24 9.95518V15.3102C20.1594 16.7333 16.0957 17.4597 12 17.4552C7.90425 17.4597 3.84055 16.7333 0 15.3102V9.95518C0 9.15953 0.31607 8.39647 0.878679 7.83386C1.44129 7.27125 2.20435 6.95518 3 6.95518H6ZM9 5.45518C9 5.05736 9.15804 4.67583 9.43934 4.39452C9.72064 4.11322 10.1022 3.95518 10.5 3.95518H13.5C13.8978 3.95518 14.2794 4.11322 14.5607 4.39452C14.842 4.67583 15 5.05736 15 5.45518V6.95518H9V5.45518ZM10.5 12.9552C10.5 12.5574 10.658 12.1758 10.9393 11.8945C11.2206 11.6132 11.6022 11.4552 12 11.4552H12.015C12.4128 11.4552 12.7944 11.6132 13.0757 11.8945C13.357 12.1758 13.515 12.5574 13.515 12.9552C13.515 13.353 13.357 13.7345 13.0757 14.0158C12.7944 14.2971 12.4128 14.4552 12.015 14.4552H12C11.6022 14.4552 11.2206 14.2971 10.9393 14.0158C10.658 13.7345 10.5 13.353 10.5 12.9552Z" fill="#656667"/>
<path d="M0 18.4932V21.9552C0 22.7508 0.31607 23.5139 0.878679 24.0765C1.44129 24.6391 2.20435 24.9552 3 24.9552H21C21.7956 24.9552 22.5587 24.6391 23.1213 24.0765C23.6839 23.5139 24 22.7508 24 21.9552V18.4932C20.1335 19.7963 16.0802 20.459 12 20.4552C7.806 20.4552 3.7695 19.7652 0 18.4932Z" fill="#656667"/>
</svg>
