<svg width="20" height="24" viewBox="0 0 20 24" fill="none" xmlns="http://www.w3.org/2000/svg">
<path d="M10.0068 23.0181C9.79421 23.0181 9.63495 23.0006 9.42233 22.966C7.18979 22.1442 7.18969 19.1728 7.18969 17.7419C7.18969 17.6356 7.18969 17.5367 7.18969 17.4479V16.3115H16.2791C16.2791 16.313 16.3854 16.3173 16.5449 16.3173C17.0233 16.3173 17.9803 16.2636 18.8839 15.9053C19.3623 15.7049 19.7342 15.4344 20 15.1027V15.7363C20 16.9993 19.3622 18.1767 18.246 18.8082L11.7609 22.5445C11.2293 22.8538 10.6447 23.0181 10.0068 23.0181ZM1.7677 18.8082C0.8109 18.2713 0.226291 17.3528 0.0136687 16.287C-0.145798 14.1066 1.12983 13.1742 1.7677 12.6724C2.13979 12.4306 3.25617 11.6954 5.06346 10.5467H6.17952C6.39214 10.5467 6.60466 10.7477 6.60466 10.9954V12.7596C6.60466 12.7814 6.60466 15.1367 6.60466 17.4495C6.60466 17.5378 6.60466 17.634 6.60466 17.7387C6.60466 18.8252 6.60497 20.7239 7.45547 22.1038L1.7677 18.8082ZM16.5449 15.7379C16.3854 15.7379 16.2791 15.7326 16.2791 15.7326V15.7321H13.462V10.9954C13.462 10.7514 13.6748 10.5526 13.9406 10.5526C14.3127 10.5552 14.7911 10.5584 15.2695 10.5584C15.801 10.5584 16.1729 10.5542 16.3855 10.5467C17.3423 10.5127 18.7244 10.1194 19.5749 9.12322C19.7343 8.8904 19.8937 8.63684 20 8.36575V13.4538C20 14.3596 19.575 14.9868 18.6182 15.3701C17.8208 15.7023 16.917 15.7379 16.5449 15.7379ZM0.0136687 8.26475C0.0136687 7.00071 0.651433 5.82385 1.7677 5.19183C2.51188 4.76764 3.25596 4.55343 4.05329 4.55343C5.0101 4.55343 6.07311 4.89788 7.13622 5.57774C7.8804 6.06624 8.67794 6.5845 9.47528 7.06822L7.2961 8.44814C7.08348 8.57571 2.24631 11.6183 1.44898 12.2078C1.07689 12.4981 0.438914 12.9589 0.0136687 13.7292V8.26475ZM15.163 9.97849L12.824 8.52628C12.824 8.50927 9.84747 6.62969 7.45547 5.0903C6.28604 4.34931 5.11641 3.9735 4.05329 3.9735C4.00014 3.9735 3.94729 3.97509 3.84098 3.97722L8.2528 1.45658C8.78436 1.14615 9.36897 0.981899 10.0068 0.981899C10.6447 0.981899 11.2293 1.14615 11.7609 1.45658L18.246 5.19183C18.8838 5.54212 19.3623 6.06092 19.6813 6.69401C19.7344 7.5126 19.5747 8.20362 19.0963 8.7506C18.3521 9.66009 17.0234 9.94394 16.3855 9.96839C16.1729 9.97477 15.801 9.97849 15.2695 9.97849H15.163Z" fill="white"/>
</svg>
