<svg width="80" height="80" viewBox="0 0 80 80" fill="none" xmlns="http://www.w3.org/2000/svg">
<path d="M80 0H0V80H80V0Z" fill="white"/>
<path d="M9.60002 6.3999H6.40002V9.5999H9.60002V6.3999Z" fill="black"/>
<path d="M12.8001 6.3999H9.60007V9.5999H12.8001V6.3999Z" fill="black"/>
<path d="M16 6.3999H12.8V9.5999H16V6.3999Z" fill="black"/>
<path d="M19.2 6.3999H16V9.5999H19.2V6.3999Z" fill="black"/>
<path d="M22.4 6.3999H19.2V9.5999H22.4V6.3999Z" fill="black"/>
<path d="M25.6 6.3999H22.4V9.5999H25.6V6.3999Z" fill="black"/>
<path d="M28.8 6.3999H25.6V9.5999H28.8V6.3999Z" fill="black"/>
<path d="M38.4 6.3999H35.2V9.5999H38.4V6.3999Z" fill="black"/>
<path d="M44.8 6.3999H41.6V9.5999H44.8V6.3999Z" fill="black"/>
<path d="M48 6.3999H44.8V9.5999H48V6.3999Z" fill="black"/>
<path d="M54.4 6.3999H51.2V9.5999H54.4V6.3999Z" fill="black"/>
<path d="M57.6 6.3999H54.4V9.5999H57.6V6.3999Z" fill="black"/>
<path d="M60.8 6.3999H57.6V9.5999H60.8V6.3999Z" fill="black"/>
<path d="M64 6.3999H60.8V9.5999H64V6.3999Z" fill="black"/>
<path d="M67.2 6.3999H64V9.5999H67.2V6.3999Z" fill="black"/>
<path d="M70.4 6.3999H67.2V9.5999H70.4V6.3999Z" fill="black"/>
<path d="M73.5999 6.3999H70.3999V9.5999H73.5999V6.3999Z" fill="black"/>
<path d="M9.60002 9.6001H6.40002V12.8001H9.60002V9.6001Z" fill="black"/>
<path d="M28.8 9.6001H25.6V12.8001H28.8V9.6001Z" fill="black"/>
<path d="M38.4 9.6001H35.2V12.8001H38.4V9.6001Z" fill="black"/>
<path d="M41.6 9.6001H38.4V12.8001H41.6V9.6001Z" fill="black"/>
<path d="M44.8 9.6001H41.6V12.8001H44.8V9.6001Z" fill="black"/>
<path d="M54.4 9.6001H51.2V12.8001H54.4V9.6001Z" fill="black"/>
<path d="M73.5999 9.6001H70.3999V12.8001H73.5999V9.6001Z" fill="black"/>
<path d="M9.60002 12.8H6.40002V16H9.60002V12.8Z" fill="black"/>
<path d="M16 12.8H12.8V16H16V12.8Z" fill="black"/>
<path d="M19.2 12.8H16V16H19.2V12.8Z" fill="black"/>
<path d="M22.4 12.8H19.2V16H22.4V12.8Z" fill="black"/>
<path d="M28.8 12.8H25.6V16H28.8V12.8Z" fill="black"/>
<path d="M35.1999 12.8H31.9999V16H35.1999V12.8Z" fill="black"/>
<path d="M38.4 12.8H35.2V16H38.4V12.8Z" fill="black"/>
<path d="M44.8 12.8H41.6V16H44.8V12.8Z" fill="black"/>
<path d="M48 12.8H44.8V16H48V12.8Z" fill="black"/>
<path d="M54.4 12.8H51.2V16H54.4V12.8Z" fill="black"/>
<path d="M60.8 12.8H57.6V16H60.8V12.8Z" fill="black"/>
<path d="M64 12.8H60.8V16H64V12.8Z" fill="black"/>
<path d="M67.2 12.8H64V16H67.2V12.8Z" fill="black"/>
<path d="M73.5999 12.8H70.3999V16H73.5999V12.8Z" fill="black"/>
<path d="M9.60002 16H6.40002V19.2H9.60002V16Z" fill="black"/>
<path d="M16 16H12.8V19.2H16V16Z" fill="black"/>
<path d="M19.2 16H16V19.2H19.2V16Z" fill="black"/>
<path d="M22.4 16H19.2V19.2H22.4V16Z" fill="black"/>
<path d="M28.8 16H25.6V19.2H28.8V16Z" fill="black"/>
<path d="M38.4 16H35.2V19.2H38.4V16Z" fill="black"/>
<path d="M44.8 16H41.6V19.2H44.8V16Z" fill="black"/>
<path d="M54.4 16H51.2V19.2H54.4V16Z" fill="black"/>
<path d="M60.8 16H57.6V19.2H60.8V16Z" fill="black"/>
<path d="M64 16H60.8V19.2H64V16Z" fill="black"/>
<path d="M67.2 16H64V19.2H67.2V16Z" fill="black"/>
<path d="M73.5999 16H70.3999V19.2H73.5999V16Z" fill="black"/>
<path d="M9.60002 19.2H6.40002V22.4H9.60002V19.2Z" fill="black"/>
<path d="M16 19.2H12.8V22.4H16V19.2Z" fill="black"/>
<path d="M19.2 19.2H16V22.4H19.2V19.2Z" fill="black"/>
<path d="M22.4 19.2H19.2V22.4H22.4V19.2Z" fill="black"/>
<path d="M28.8 19.2H25.6V22.4H28.8V19.2Z" fill="black"/>
<path d="M41.6 19.2H38.4V22.4H41.6V19.2Z" fill="black"/>
<path d="M48 19.2H44.8V22.4H48V19.2Z" fill="black"/>
<path d="M54.4 19.2H51.2V22.4H54.4V19.2Z" fill="black"/>
<path d="M60.8 19.2H57.6V22.4H60.8V19.2Z" fill="black"/>
<path d="M64 19.2H60.8V22.4H64V19.2Z" fill="black"/>
<path d="M67.2 19.2H64V22.4H67.2V19.2Z" fill="black"/>
<path d="M73.5999 19.2H70.3999V22.4H73.5999V19.2Z" fill="black"/>
<path d="M9.60002 22.3999H6.40002V25.5999H9.60002V22.3999Z" fill="black"/>
<path d="M28.8 22.3999H25.6V25.5999H28.8V22.3999Z" fill="black"/>
<path d="M48 22.3999H44.8V25.5999H48V22.3999Z" fill="black"/>
<path d="M54.4 22.3999H51.2V25.5999H54.4V22.3999Z" fill="black"/>
<path d="M73.5999 22.3999H70.3999V25.5999H73.5999V22.3999Z" fill="black"/>
<path d="M9.60002 25.6001H6.40002V28.8001H9.60002V25.6001Z" fill="black"/>
<path d="M12.8001 25.6001H9.60007V28.8001H12.8001V25.6001Z" fill="black"/>
<path d="M16 25.6001H12.8V28.8001H16V25.6001Z" fill="black"/>
<path d="M19.2 25.6001H16V28.8001H19.2V25.6001Z" fill="black"/>
<path d="M22.4 25.6001H19.2V28.8001H22.4V25.6001Z" fill="black"/>
<path d="M25.6 25.6001H22.4V28.8001H25.6V25.6001Z" fill="black"/>
<path d="M28.8 25.6001H25.6V28.8001H28.8V25.6001Z" fill="black"/>
<path d="M35.1999 25.6001H31.9999V28.8001H35.1999V25.6001Z" fill="black"/>
<path d="M41.6 25.6001H38.4V28.8001H41.6V25.6001Z" fill="black"/>
<path d="M48 25.6001H44.8V28.8001H48V25.6001Z" fill="black"/>
<path d="M54.4 25.6001H51.2V28.8001H54.4V25.6001Z" fill="black"/>
<path d="M57.6 25.6001H54.4V28.8001H57.6V25.6001Z" fill="black"/>
<path d="M60.8 25.6001H57.6V28.8001H60.8V25.6001Z" fill="black"/>
<path d="M64 25.6001H60.8V28.8001H64V25.6001Z" fill="black"/>
<path d="M67.2 25.6001H64V28.8001H67.2V25.6001Z" fill="black"/>
<path d="M70.4 25.6001H67.2V28.8001H70.4V25.6001Z" fill="black"/>
<path d="M73.5999 25.6001H70.3999V28.8001H73.5999V25.6001Z" fill="black"/>
<path d="M35.1999 28.8H31.9999V32H35.1999V28.8Z" fill="black"/>
<path d="M38.4 28.8H35.2V32H38.4V28.8Z" fill="black"/>
<path d="M44.8 28.8H41.6V32H44.8V28.8Z" fill="black"/>
<path d="M48 28.8H44.8V32H48V28.8Z" fill="black"/>
<path d="M9.60002 32H6.40002V35.2H9.60002V32Z" fill="black"/>
<path d="M12.8001 32H9.60007V35.2H12.8001V32Z" fill="black"/>
<path d="M16 32H12.8V35.2H16V32Z" fill="black"/>
<path d="M22.4 32H19.2V35.2H22.4V32Z" fill="black"/>
<path d="M25.6 32H22.4V35.2H25.6V32Z" fill="black"/>
<path d="M28.8 32H25.6V35.2H28.8V32Z" fill="black"/>
<path d="M32 32H28.8V35.2H32V32Z" fill="black"/>
<path d="M35.1999 32H31.9999V35.2H35.1999V32Z" fill="black"/>
<path d="M38.4 32H35.2V35.2H38.4V32Z" fill="black"/>
<path d="M41.6 32H38.4V35.2H41.6V32Z" fill="black"/>
<path d="M44.8 32H41.6V35.2H44.8V32Z" fill="black"/>
<path d="M51.2001 32H48.0001V35.2H51.2001V32Z" fill="black"/>
<path d="M54.4 32H51.2V35.2H54.4V32Z" fill="black"/>
<path d="M67.2 32H64V35.2H67.2V32Z" fill="black"/>
<path d="M9.60002 35.2H6.40002V38.3999H9.60002V35.2Z" fill="black"/>
<path d="M16 35.2H12.8V38.3999H16V35.2Z" fill="black"/>
<path d="M19.2 35.2H16V38.3999H19.2V35.2Z" fill="black"/>
<path d="M22.4 35.2H19.2V38.3999H22.4V35.2Z" fill="black"/>
<path d="M38.4 35.2H35.2V38.3999H38.4V35.2Z" fill="black"/>
<path d="M54.4 35.2H51.2V38.3999H54.4V35.2Z" fill="black"/>
<path d="M57.6 35.2H54.4V38.3999H57.6V35.2Z" fill="black"/>
<path d="M73.5999 35.2H70.3999V38.3999H73.5999V35.2Z" fill="black"/>
<path d="M9.60002 38.3999H6.40002V41.5999H9.60002V38.3999Z" fill="black"/>
<path d="M12.8001 38.3999H9.60007V41.5999H12.8001V38.3999Z" fill="black"/>
<path d="M22.4 38.3999H19.2V41.5999H22.4V38.3999Z" fill="black"/>
<path d="M28.8 38.3999H25.6V41.5999H28.8V38.3999Z" fill="black"/>
<path d="M32 38.3999H28.8V41.5999H32V38.3999Z" fill="black"/>
<path d="M35.1999 38.3999H31.9999V41.5999H35.1999V38.3999Z" fill="black"/>
<path d="M38.4 38.3999H35.2V41.5999H38.4V38.3999Z" fill="black"/>
<path d="M41.6 38.3999H38.4V41.5999H41.6V38.3999Z" fill="black"/>
<path d="M48 38.3999H44.8V41.5999H48V38.3999Z" fill="black"/>
<path d="M60.8 38.3999H57.6V41.5999H60.8V38.3999Z" fill="black"/>
<path d="M67.2 38.3999H64V41.5999H67.2V38.3999Z" fill="black"/>
<path d="M70.4 38.3999H67.2V41.5999H70.4V38.3999Z" fill="black"/>
<path d="M73.5999 38.3999H70.3999V41.5999H73.5999V38.3999Z" fill="black"/>
<path d="M19.2 41.6001H16V44.8001H19.2V41.6001Z" fill="black"/>
<path d="M22.4 41.6001H19.2V44.8001H22.4V41.6001Z" fill="black"/>
<path d="M25.6 41.6001H22.4V44.8001H25.6V41.6001Z" fill="black"/>
<path d="M38.4 41.6001H35.2V44.8001H38.4V41.6001Z" fill="black"/>
<path d="M41.6 41.6001H38.4V44.8001H41.6V41.6001Z" fill="black"/>
<path d="M54.4 41.6001H51.2V44.8001H54.4V41.6001Z" fill="black"/>
<path d="M60.8 41.6001H57.6V44.8001H60.8V41.6001Z" fill="black"/>
<path d="M70.4 41.6001H67.2V44.8001H70.4V41.6001Z" fill="black"/>
<path d="M9.60002 44.8H6.40002V48H9.60002V44.8Z" fill="black"/>
<path d="M19.2 44.8H16V48H19.2V44.8Z" fill="black"/>
<path d="M25.6 44.8H22.4V48H25.6V44.8Z" fill="black"/>
<path d="M28.8 44.8H25.6V48H28.8V44.8Z" fill="black"/>
<path d="M32 44.8H28.8V48H32V44.8Z" fill="black"/>
<path d="M48 44.8H44.8V48H48V44.8Z" fill="black"/>
<path d="M54.4 44.8H51.2V48H54.4V44.8Z" fill="black"/>
<path d="M57.6 44.8H54.4V48H57.6V44.8Z" fill="black"/>
<path d="M64 44.8H60.8V48H64V44.8Z" fill="black"/>
<path d="M35.1999 48H31.9999V51.2H35.1999V48Z" fill="black"/>
<path d="M44.8 48H41.6V51.2H44.8V48Z" fill="black"/>
<path d="M51.2001 48H48.0001V51.2H51.2001V48Z" fill="black"/>
<path d="M57.6 48H54.4V51.2H57.6V48Z" fill="black"/>
<path d="M60.8 48H57.6V51.2H60.8V48Z" fill="black"/>
<path d="M70.4 48H67.2V51.2H70.4V48Z" fill="black"/>
<path d="M73.5999 48H70.3999V51.2H73.5999V48Z" fill="black"/>
<path d="M9.60002 51.2H6.40002V54.4H9.60002V51.2Z" fill="black"/>
<path d="M12.8001 51.2H9.60007V54.4H12.8001V51.2Z" fill="black"/>
<path d="M16 51.2H12.8V54.4H16V51.2Z" fill="black"/>
<path d="M19.2 51.2H16V54.4H19.2V51.2Z" fill="black"/>
<path d="M22.4 51.2H19.2V54.4H22.4V51.2Z" fill="black"/>
<path d="M25.6 51.2H22.4V54.4H25.6V51.2Z" fill="black"/>
<path d="M28.8 51.2H25.6V54.4H28.8V51.2Z" fill="black"/>
<path d="M35.1999 51.2H31.9999V54.4H35.1999V51.2Z" fill="black"/>
<path d="M41.6 51.2H38.4V54.4H41.6V51.2Z" fill="black"/>
<path d="M44.8 51.2H41.6V54.4H44.8V51.2Z" fill="black"/>
<path d="M51.2001 51.2H48.0001V54.4H51.2001V51.2Z" fill="black"/>
<path d="M54.4 51.2H51.2V54.4H54.4V51.2Z" fill="black"/>
<path d="M60.8 51.2H57.6V54.4H60.8V51.2Z" fill="black"/>
<path d="M67.2 51.2H64V54.4H67.2V51.2Z" fill="black"/>
<path d="M70.4 51.2H67.2V54.4H70.4V51.2Z" fill="black"/>
<path d="M73.5999 51.2H70.3999V54.4H73.5999V51.2Z" fill="black"/>
<path d="M9.60002 54.3999H6.40002V57.5999H9.60002V54.3999Z" fill="black"/>
<path d="M28.8 54.3999H25.6V57.5999H28.8V54.3999Z" fill="black"/>
<path d="M35.1999 54.3999H31.9999V57.5999H35.1999V54.3999Z" fill="black"/>
<path d="M38.4 54.3999H35.2V57.5999H38.4V54.3999Z" fill="black"/>
<path d="M44.8 54.3999H41.6V57.5999H44.8V54.3999Z" fill="black"/>
<path d="M48 54.3999H44.8V57.5999H48V54.3999Z" fill="black"/>
<path d="M51.2001 54.3999H48.0001V57.5999H51.2001V54.3999Z" fill="black"/>
<path d="M60.8 54.3999H57.6V57.5999H60.8V54.3999Z" fill="black"/>
<path d="M73.5999 54.3999H70.3999V57.5999H73.5999V54.3999Z" fill="black"/>
<path d="M9.60002 57.6001H6.40002V60.8001H9.60002V57.6001Z" fill="black"/>
<path d="M16 57.6001H12.8V60.8001H16V57.6001Z" fill="black"/>
<path d="M19.2 57.6001H16V60.8001H19.2V57.6001Z" fill="black"/>
<path d="M22.4 57.6001H19.2V60.8001H22.4V57.6001Z" fill="black"/>
<path d="M28.8 57.6001H25.6V60.8001H28.8V57.6001Z" fill="black"/>
<path d="M35.1999 57.6001H31.9999V60.8001H35.1999V57.6001Z" fill="black"/>
<path d="M41.6 57.6001H38.4V60.8001H41.6V57.6001Z" fill="black"/>
<path d="M44.8 57.6001H41.6V60.8001H44.8V57.6001Z" fill="black"/>
<path d="M51.2001 57.6001H48.0001V60.8001H51.2001V57.6001Z" fill="black"/>
<path d="M54.4 57.6001H51.2V60.8001H54.4V57.6001Z" fill="black"/>
<path d="M57.6 57.6001H54.4V60.8001H57.6V57.6001Z" fill="black"/>
<path d="M64 57.6001H60.8V60.8001H64V57.6001Z" fill="black"/>
<path d="M70.4 57.6001H67.2V60.8001H70.4V57.6001Z" fill="black"/>
<path d="M73.5999 57.6001H70.3999V60.8001H73.5999V57.6001Z" fill="black"/>
<path d="M9.60002 60.8H6.40002V64H9.60002V60.8Z" fill="black"/>
<path d="M16 60.8H12.8V64H16V60.8Z" fill="black"/>
<path d="M19.2 60.8H16V64H19.2V60.8Z" fill="black"/>
<path d="M22.4 60.8H19.2V64H22.4V60.8Z" fill="black"/>
<path d="M28.8 60.8H25.6V64H28.8V60.8Z" fill="black"/>
<path d="M38.4 60.8H35.2V64H38.4V60.8Z" fill="black"/>
<path d="M41.6 60.8H38.4V64H41.6V60.8Z" fill="black"/>
<path d="M54.4 60.8H51.2V64H54.4V60.8Z" fill="black"/>
<path d="M57.6 60.8H54.4V64H57.6V60.8Z" fill="black"/>
<path d="M60.8 60.8H57.6V64H60.8V60.8Z" fill="black"/>
<path d="M64 60.8H60.8V64H64V60.8Z" fill="black"/>
<path d="M70.4 60.8H67.2V64H70.4V60.8Z" fill="black"/>
<path d="M9.60002 64H6.40002V67.2H9.60002V64Z" fill="black"/>
<path d="M16 64H12.8V67.2H16V64Z" fill="black"/>
<path d="M19.2 64H16V67.2H19.2V64Z" fill="black"/>
<path d="M22.4 64H19.2V67.2H22.4V64Z" fill="black"/>
<path d="M28.8 64H25.6V67.2H28.8V64Z" fill="black"/>
<path d="M35.1999 64H31.9999V67.2H35.1999V64Z" fill="black"/>
<path d="M41.6 64H38.4V67.2H41.6V64Z" fill="black"/>
<path d="M48 64H44.8V67.2H48V64Z" fill="black"/>
<path d="M60.8 64H57.6V67.2H60.8V64Z" fill="black"/>
<path d="M67.2 64H64V67.2H67.2V64Z" fill="black"/>
<path d="M73.5999 64H70.3999V67.2H73.5999V64Z" fill="black"/>
<path d="M9.60002 67.2H6.40002V70.4H9.60002V67.2Z" fill="black"/>
<path d="M28.8 67.2H25.6V70.4H28.8V67.2Z" fill="black"/>
<path d="M35.1999 67.2H31.9999V70.4H35.1999V67.2Z" fill="black"/>
<path d="M38.4 67.2H35.2V70.4H38.4V67.2Z" fill="black"/>
<path d="M41.6 67.2H38.4V70.4H41.6V67.2Z" fill="black"/>
<path d="M54.4 67.2H51.2V70.4H54.4V67.2Z" fill="black"/>
<path d="M57.6 67.2H54.4V70.4H57.6V67.2Z" fill="black"/>
<path d="M60.8 67.2H57.6V70.4H60.8V67.2Z" fill="black"/>
<path d="M64 67.2H60.8V70.4H64V67.2Z" fill="black"/>
<path d="M70.4 67.2H67.2V70.4H70.4V67.2Z" fill="black"/>
<path d="M9.60002 70.3999H6.40002V73.5999H9.60002V70.3999Z" fill="black"/>
<path d="M12.8001 70.3999H9.60007V73.5999H12.8001V70.3999Z" fill="black"/>
<path d="M16 70.3999H12.8V73.5999H16V70.3999Z" fill="black"/>
<path d="M19.2 70.3999H16V73.5999H19.2V70.3999Z" fill="black"/>
<path d="M22.4 70.3999H19.2V73.5999H22.4V70.3999Z" fill="black"/>
<path d="M25.6 70.3999H22.4V73.5999H25.6V70.3999Z" fill="black"/>
<path d="M28.8 70.3999H25.6V73.5999H28.8V70.3999Z" fill="black"/>
<path d="M35.1999 70.3999H31.9999V73.5999H35.1999V70.3999Z" fill="black"/>
<path d="M48 70.3999H44.8V73.5999H48V70.3999Z" fill="black"/>
<path d="M54.4 70.3999H51.2V73.5999H54.4V70.3999Z" fill="black"/>
<path d="M64 70.3999H60.8V73.5999H64V70.3999Z" fill="black"/>
<path d="M70.4 70.3999H67.2V73.5999H70.4V70.3999Z" fill="black"/>
<path d="M73.5999 70.3999H70.3999V73.5999H73.5999V70.3999Z" fill="black"/>
</svg>
